<svg width="310" height="122" viewBox="0 0 310 122" fill="none" xmlns="http://www.w3.org/2000/svg">
<path d="M121.096 56V30.872H137.26V34.256H125.128V41.564H136.144V44.948H125.128V56H121.096Z" fill="white"/>
<path d="M142.322 52.832H147.254V40.592H142.322V37.424H151.178V42.356H151.394C151.562 41.708 151.802 41.084 152.114 40.484C152.426 39.884 152.822 39.368 153.302 38.936C153.782 38.48 154.37 38.12 155.066 37.856C155.762 37.568 156.578 37.424 157.514 37.424H159.746V41.168H156.074C154.634 41.168 153.458 41.6 152.546 42.464C151.634 43.304 151.178 44.444 151.178 45.884V52.832H157.91V56H142.322V52.832Z" fill="white"/>
<path d="M171.972 56.432C170.604 56.432 169.368 56.204 168.264 55.748C167.184 55.292 166.26 54.644 165.492 53.804C164.748 52.964 164.172 51.944 163.764 50.744C163.356 49.544 163.152 48.2 163.152 46.712C163.152 45.224 163.356 43.88 163.764 42.68C164.172 41.48 164.748 40.46 165.492 39.62C166.26 38.78 167.184 38.132 168.264 37.676C169.368 37.22 170.604 36.992 171.972 36.992C173.34 36.992 174.564 37.22 175.644 37.676C176.748 38.132 177.672 38.78 178.416 39.62C179.184 40.46 179.772 41.48 180.18 42.68C180.588 43.88 180.792 45.224 180.792 46.712C180.792 48.2 180.588 49.544 180.18 50.744C179.772 51.944 179.184 52.964 178.416 53.804C177.672 54.644 176.748 55.292 175.644 55.748C174.564 56.204 173.34 56.432 171.972 56.432ZM171.972 53.336C173.412 53.336 174.552 52.904 175.392 52.04C176.256 51.152 176.688 49.844 176.688 48.116V45.308C176.688 43.58 176.256 42.284 175.392 41.42C174.552 40.532 173.412 40.088 171.972 40.088C170.532 40.088 169.38 40.532 168.516 41.42C167.676 42.284 167.256 43.58 167.256 45.308V48.116C167.256 49.844 167.676 51.152 168.516 52.04C169.38 52.904 170.532 53.336 171.972 53.336Z" fill="white"/>
<path d="M193.594 56.432C191.578 56.432 189.838 56.108 188.374 55.46C186.934 54.812 185.77 53.948 184.882 52.868L187.294 50.708C188.11 51.596 189.022 52.28 190.03 52.76C191.062 53.216 192.274 53.444 193.666 53.444C194.938 53.444 195.958 53.228 196.726 52.796C197.518 52.364 197.914 51.692 197.914 50.78C197.914 50.396 197.842 50.072 197.698 49.808C197.554 49.544 197.35 49.328 197.086 49.16C196.822 48.992 196.51 48.86 196.15 48.764C195.814 48.668 195.454 48.596 195.07 48.548L192.118 48.08C191.398 47.984 190.666 47.828 189.922 47.612C189.178 47.396 188.506 47.096 187.906 46.712C187.33 46.304 186.85 45.788 186.466 45.164C186.106 44.54 185.926 43.748 185.926 42.788C185.926 40.892 186.646 39.452 188.086 38.468C189.55 37.484 191.47 36.992 193.846 36.992C195.574 36.992 197.062 37.256 198.31 37.784C199.582 38.288 200.638 38.996 201.478 39.908L199.282 42.212C198.802 41.66 198.118 41.156 197.23 40.7C196.342 40.22 195.166 39.98 193.702 39.98C191.086 39.98 189.778 40.808 189.778 42.464C189.778 43.256 190.054 43.808 190.606 44.12C191.182 44.408 191.854 44.6 192.622 44.696L195.574 45.164C196.318 45.284 197.05 45.44 197.77 45.632C198.514 45.824 199.174 46.124 199.75 46.532C200.35 46.916 200.83 47.42 201.19 48.044C201.574 48.668 201.766 49.46 201.766 50.42C201.766 52.292 201.034 53.768 199.57 54.848C198.13 55.904 196.138 56.432 193.594 56.432Z" fill="white"/>
<path d="M216.26 56C214.628 56 213.428 55.568 212.66 54.704C211.892 53.816 211.508 52.676 211.508 51.284V40.592H205.784V37.424H209.852C210.548 37.424 211.04 37.292 211.328 37.028C211.616 36.74 211.76 36.236 211.76 35.516V30.872H215.432V37.424H223.352V40.592H215.432V52.832H223.352V56H216.26Z" fill="white"/>
<path d="M237.882 34.04C236.874 34.04 236.166 33.836 235.758 33.428C235.374 33.02 235.182 32.516 235.182 31.916V31.16C235.182 30.56 235.374 30.056 235.758 29.648C236.166 29.24 236.862 29.036 237.846 29.036C238.854 29.036 239.55 29.24 239.934 29.648C240.342 30.056 240.546 30.56 240.546 31.16V31.916C240.546 32.516 240.342 33.02 239.934 33.428C239.55 33.836 238.866 34.04 237.882 34.04ZM229.566 52.832H235.902V40.592H229.566V37.424H239.826V52.832H245.766V56H229.566V52.832Z" fill="white"/>
<path d="M258.712 56.432C257.296 56.432 256.024 56.204 254.896 55.748C253.768 55.292 252.82 54.644 252.052 53.804C251.284 52.964 250.696 51.956 250.288 50.78C249.88 49.58 249.676 48.236 249.676 46.748C249.676 45.26 249.88 43.916 250.288 42.716C250.72 41.516 251.308 40.496 252.052 39.656C252.82 38.792 253.744 38.132 254.824 37.676C255.904 37.22 257.104 36.992 258.424 36.992C259.72 36.992 260.896 37.22 261.952 37.676C263.008 38.108 263.908 38.732 264.652 39.548C265.396 40.364 265.96 41.336 266.344 42.464C266.752 43.592 266.956 44.84 266.956 46.208V47.684H253.636V48.296C253.636 49.76 254.092 50.96 255.004 51.896C255.916 52.808 257.176 53.264 258.784 53.264C259.984 53.264 261.004 53.012 261.844 52.508C262.708 51.98 263.404 51.284 263.932 50.42L266.38 52.58C265.756 53.66 264.796 54.572 263.5 55.316C262.228 56.06 260.632 56.432 258.712 56.432ZM258.424 39.98C257.728 39.98 257.08 40.1 256.48 40.34C255.904 40.58 255.4 40.928 254.968 41.384C254.56 41.816 254.236 42.332 253.996 42.932C253.756 43.532 253.636 44.192 253.636 44.912V45.164H262.96V44.804C262.96 43.34 262.54 42.176 261.7 41.312C260.884 40.424 259.792 39.98 258.424 39.98Z" fill="white"/>
<path d="M121.888 91V65.872H125.92V87.616H137.368V91H121.888Z" fill="white"/>
<path d="M157.298 91C156.17 91 155.318 90.712 154.742 90.136C154.19 89.56 153.854 88.804 153.734 87.868H153.554C153.194 88.996 152.534 89.872 151.574 90.496C150.638 91.12 149.438 91.432 147.974 91.432C146.078 91.432 144.566 90.94 143.438 89.956C142.31 88.948 141.746 87.568 141.746 85.816C141.746 84.016 142.406 82.648 143.726 81.712C145.07 80.752 147.122 80.272 149.882 80.272H153.446V78.832C153.446 76.312 152.114 75.052 149.45 75.052C148.25 75.052 147.278 75.292 146.534 75.772C145.79 76.228 145.166 76.84 144.662 77.608L142.322 75.7C142.85 74.692 143.738 73.828 144.986 73.108C146.234 72.364 147.842 71.992 149.81 71.992C152.162 71.992 154.01 72.556 155.354 73.684C156.698 74.812 157.37 76.444 157.37 78.58V87.904H159.71V91H157.298ZM149.09 88.552C150.362 88.552 151.406 88.264 152.222 87.688C153.038 87.112 153.446 86.368 153.446 85.456V82.756H149.954C147.122 82.756 145.706 83.608 145.706 85.312V86.032C145.706 86.872 146.006 87.508 146.606 87.94C147.206 88.348 148.034 88.552 149.09 88.552Z" fill="white"/>
<path d="M164.016 64.36H167.94V75.592H168.156C168.708 74.464 169.44 73.588 170.352 72.964C171.264 72.316 172.404 71.992 173.772 71.992C175.956 71.992 177.696 72.808 178.992 74.44C180.288 76.072 180.936 78.496 180.936 81.712C180.936 84.928 180.288 87.352 178.992 88.984C177.696 90.616 175.956 91.432 173.772 91.432C172.404 91.432 171.264 91.12 170.352 90.496C169.44 89.848 168.708 88.96 168.156 87.832H167.94V91H164.016V64.36ZM172.152 88.228C173.64 88.228 174.78 87.772 175.572 86.86C176.388 85.948 176.796 84.736 176.796 83.224V80.2C176.796 78.688 176.388 77.476 175.572 76.564C174.78 75.652 173.64 75.196 172.152 75.196C171.576 75.196 171.036 75.268 170.532 75.412C170.028 75.556 169.584 75.772 169.2 76.06C168.816 76.348 168.504 76.708 168.264 77.14C168.048 77.548 167.94 78.04 167.94 78.616V84.808C167.94 85.384 168.048 85.888 168.264 86.32C168.504 86.728 168.816 87.076 169.2 87.364C169.584 87.652 170.028 87.868 170.532 88.012C171.036 88.156 171.576 88.228 172.152 88.228Z" fill="white"/>
<path d="M193.594 91.432C191.578 91.432 189.838 91.108 188.374 90.46C186.934 89.812 185.77 88.948 184.882 87.868L187.294 85.708C188.11 86.596 189.022 87.28 190.03 87.76C191.062 88.216 192.274 88.444 193.666 88.444C194.938 88.444 195.958 88.228 196.726 87.796C197.518 87.364 197.914 86.692 197.914 85.78C197.914 85.396 197.842 85.072 197.698 84.808C197.554 84.544 197.35 84.328 197.086 84.16C196.822 83.992 196.51 83.86 196.15 83.764C195.814 83.668 195.454 83.596 195.07 83.548L192.118 83.08C191.398 82.984 190.666 82.828 189.922 82.612C189.178 82.396 188.506 82.096 187.906 81.712C187.33 81.304 186.85 80.788 186.466 80.164C186.106 79.54 185.926 78.748 185.926 77.788C185.926 75.892 186.646 74.452 188.086 73.468C189.55 72.484 191.47 71.992 193.846 71.992C195.574 71.992 197.062 72.256 198.31 72.784C199.582 73.288 200.638 73.996 201.478 74.908L199.282 77.212C198.802 76.66 198.118 76.156 197.23 75.7C196.342 75.22 195.166 74.98 193.702 74.98C191.086 74.98 189.778 75.808 189.778 77.464C189.778 78.256 190.054 78.808 190.606 79.12C191.182 79.408 191.854 79.6 192.622 79.696L195.574 80.164C196.318 80.284 197.05 80.44 197.77 80.632C198.514 80.824 199.174 81.124 199.75 81.532C200.35 81.916 200.83 82.42 201.19 83.044C201.574 83.668 201.766 84.46 201.766 85.42C201.766 87.292 201.034 88.768 199.57 89.848C198.13 90.904 196.138 91.432 193.594 91.432Z" fill="white"/>
<path fill-rule="evenodd" clip-rule="evenodd" d="M68.463 18.0012C68.8579 17.9882 69.2408 18.1409 69.5167 18.4231L101.601 51.2444C101.985 51.6372 102.104 52.2179 101.905 52.7297L82.7804 102.103C82.639 102.468 82.351 102.757 81.9864 102.902C81.622 103.046 81.2139 103.031 80.8604 102.862L52.7354 89.3967C52.4025 89.2373 52.1456 88.9533 52.0206 88.6067L39.0831 52.6985C38.9124 52.2247 39.0092 51.6955 39.337 51.3127L67.4405 18.4914C67.6971 18.1919 68.0682 18.0143 68.463 18.0012ZM63.9024 75.7473L81.046 98.7932L98.4894 53.7619L63.9024 75.7473ZM54.4718 87.1164L76.92 97.8635L60.8526 76.2649L43.5519 56.8069L54.4718 87.1164ZM69.8614 22.7942C68.7242 31.5624 67.1696 43.6271 65.8556 54.011C65.1355 59.701 64.4873 64.8842 64.0196 68.7434C63.8326 70.2867 63.675 71.6166 63.5528 72.6809L97.5196 51.0881L69.8614 22.7942Z" fill="white"/>
</svg>
